<?xml version="1.0" standalone="no"?>
<!DOCTYPE svg PUBLIC "-//W3C//DTD SVG 20010904//EN"
 "http://www.w3.org/TR/2001/REC-SVG-20010904/DTD/svg10.dtd">
<svg version="1.0" xmlns="http://www.w3.org/2000/svg"
 width="1651.000000pt" height="1444.000000pt" viewBox="0 0 1651.000000 1444.000000"
 preserveAspectRatio="xMidYMid meet" >

 <g xmlns="http://www.w3.org/2000/svg" transform="translate(0.000000,1444.000000) scale(0.100000,-0.100000)" fill="red" stroke="red" stroke-width="30%">


<path d="M13035 14410 c-22 -4 -44 -6 -50 -3 -15 5 -223 -79 -272 -110 -21 -13 -67 -40 -103 -60 -36 -19 -79 -48 -95 -64 -16 -15 -39 -35 -51 -43 -34 -24 -134 -121 -190 -186 -142 -162 -331 -518 -375 -703 -12 -47 -28 -108 -37 -136 -8 -27 -16 -67 -18 -88 -3 -53 -98 -234 -162 -310 -72 -85 -100 -113 -147 -144 -22 -15 -49 -35 -60 -44 -11 -9 -37 -22 -57 -29 -21 -6 -41 -18 -46 -26 -5 -9 -49 -22 -118 -34 -60 -10 -123 -23 -140 -28 -58 -18 -269 -104 -283 -115 -8 -7 -24 -16 -37 -22 -13 -5 -63 -46 -110 -90 -97 -89 -141 -162 -129 -213 8 -37 2129 -2160 2177 -2180 18 -8 48 -11 67 -8 31 5 101 44 126 70 12 13 55 44 143 103 35 23 80 57 100 74 20 18 70 54 112 81 41 27 77 53 80 57 3 4 250 8 550 7 568 0 619 3 760 45 157 47 205 65 239 90 20 14 53 32 74 38 20 7 40 18 44 25 5 7 28 27 53 45 41 29 193 173 231 217 8 11 42 44 75 75 32 31 103 101 156 156 54 55 119 120 145 145 27 24 55 53 64 64 9 10 79 80 155 156 77 75 146 144 155 155 8 10 42 43 75 73 113 105 299 307 329 356 26 43 30 57 27 114 -6 145 -60 233 -181 293 -67 33 -88 33 -171 3 -104 -37 -158 -46 -280 -47 -163 0 -347 30 -404 65 -11 8 -39 19 -61 26 -22 7 -60 24 -84 37 -24 12 -50 23 -58 23 -16 0 -96 42 -212 111 -74 44 -143 93 -318 228 -28 21 -62 45 -75 52 -12 6 -61 37 -108 69 -134 90 -580 320 -619 320 -6 0 -37 13 -69 29 -31 16 -106 45 -167 64 -60 20 -148 50 -195 68 -47 17 -121 41 -165 52 -109 27 -157 52 -221 119 l-54 56 5 77 c5 97 33 145 156 267 67 66 96 105 125 162 35 71 36 79 32 153 -7 119 -57 195 -163 245 -61 28 -96 32 -170 18z m133 -109 c2 -6 9 -11 15 -11 15 0 67 -51 67 -66 0 -7 6 -14 12 -16 8 -3 13 -25 12 -64 0 -82 -27 -127 -148 -254 -137 -143 -188 -245 -180 -360 4 -53 31 -110 76 -160 28 -31 113 -100 122 -100 4 0 19 -8 33 -17 15 -10 31 -18 37 -18 29 -2 400 -118 461 -145 22 -9 90 -36 150 -60 96 -37 250 -105 295 -130 8 -5 49 -25 90 -46 41 -20 104 -54 139 -75 34 -22 66 -39 70 -39 4 0 16 -7 26 -15 11 -9 56 -38 99 -65 44 -27 82 -53 85 -57 3 -5 13 -12 23 -18 16 -10 127 -93 161 -121 26 -22 140 -99 157 -107 8 -4 33 -18 55 -32 91 -57 296 -152 410 -190 249 -83 497 -92 705 -25 l99 32 46 -27 c87 -52 126 -135 101 -217 -7 -25 -27 -65 -44 -89 -26 -37 -1264 -1275 -1313 -1313 -53 -42 -191 -118 -258 -143 -26 -9 -50 -20 -56 -23 -9 -6 -75 -24 -210 -56 -16 -4 -286 -6 -598 -5 l-569 2 -58 -45 c-32 -25 -63 -46 -69 -46 -5 0 -14 -6 -18 -12 -4 -7 -30 -29 -58 -48 -27 -19 -51 -38 -53 -42 -2 -4 -8 -8 -13 -8 -9 0 -78 -48 -187 -131 -26 -19 -62 -44 -80 -54 l-32 -20 -1056 1055 c-1184 1184 -1082 1066 -995 1150 67 65 134 112 216 152 117 59 227 93 377 117 94 16 219 85 342 191 158 135 280 361 316 584 5 35 17 82 25 105 8 23 15 45 16 49 10 43 75 195 120 280 135 256 307 454 513 591 101 67 277 144 401 175 33 8 119 -1 123 -13z"/>
<path d="M12265 12060 c-90 -5 -138 -12 -188 -30 -116 -41 -231 -152 -257 -249 -13 -51 4 -151 39 -227 32 -68 132 -181 196 -222 135 -86 235 -119 385 -127 156 -8 218 -16 370 -46 174 -36 420 -110 545 -165 17 -7 53 -22 80 -32 95 -37 282 -126 410 -195 44 -24 82 -44 85 -44 3 -1 16 -5 30 -11 51 -19 127 -43 156 -47 16 -3 40 -8 53 -11 14 -3 61 -5 105 -5 129 1 230 43 312 133 98 106 103 292 12 439 -58 95 -236 236 -371 296 -16 7 -40 21 -55 32 -40 27 -335 177 -411 207 -35 14 -72 30 -80 34 -9 4 -34 15 -56 23 -492 189 -930 268 -1360 247z m532 -124 c9 -4 86 -20 172 -36 144 -28 205 -44 381 -98 103 -32 281 -99 325 -121 21 -12 44 -21 51 -21 16 0 295 -135 324 -157 14 -11 59 -37 100 -58 41 -21 86 -46 99 -56 13 -11 27 -19 31 -19 15 0 108 -65 154 -108 146 -135 176 -320 68 -425 -51 -50 -113 -74 -207 -82 -67 -6 -96 -3 -180 18 -55 14 -122 37 -149 51 -27 14 -54 26 -61 26 -6 0 -47 20 -91 45 -43 25 -112 59 -154 76 -41 17 -95 42 -120 56 -74 41 -380 149 -570 202 -123 34 -362 71 -503 77 -119 6 -141 10 -222 42 -93 36 -172 85 -211 131 -12 14 -32 37 -44 51 -53 60 -92 198 -69 242 25 50 81 107 121 126 101 48 124 53 243 59 66 3 121 6 122 7 5 4 376 -23 390 -28z"/>
<path d="M5190 13859 c-52 -5 -126 -13 -165 -19 -38 -7 -83 -14 -99 -16 -424 -67 -863 -241 -1246 -492 -184 -121 -215 -148 -590 -522 -270 -268 -370 -375 -411 -436 -30 -45 -82 -122 -116 -173 -35 -50 -63 -94 -63 -98 0 -3 -6 -14 -14 -22 -8 -9 -34 -54 -59 -101 -41 -76 -47 -96 -57 -188 -23 -216 -143 -472 -372 -796 -35 -49 -80 -107 -100 -130 -21 -23 -38 -44 -38 -48 0 -4 -18 -28 -41 -55 -22 -26 -55 -65 -72 -86 -18 -21 -60 -68 -94 -105 -33 -37 -81 -89 -105 -115 l-43 -49 -85 17 c-299 60 -633 -7 -893 -179 -47 -31 -89 -56 -94 -56 -18 0 -172 -168 -225 -245 -118 -170 -206 -399 -187 -484 6 -29 125 -153 696 -723 784 -784 689 -710 848 -659 50 16 106 36 125 44 48 21 205 112 241 140 37 28 207 198 235 234 36 48 114 184 141 248 73 173 110 377 99 550 -7 104 -43 284 -70 349 -9 21 -16 45 -16 53 0 27 166 167 300 254 133 85 325 170 525 232 65 20 240 64 285 72 19 3 42 8 50 10 8 2 37 6 63 10 26 3 71 10 99 15 28 6 65 10 82 10 28 0 179 -148 1520 -1489 l1488 -1488 -23 -34 c-13 -19 -45 -59 -70 -89 -25 -30 -72 -91 -105 -135 -32 -44 -79 -106 -104 -137 -130 -166 -163 -208 -210 -268 -28 -36 -72 -94 -98 -129 -26 -35 -71 -93 -100 -128 -29 -35 -70 -88 -91 -118 -21 -30 -57 -78 -80 -107 -23 -29 -72 -91 -108 -138 -60 -76 -114 -145 -174 -220 -11 -14 -57 -74 -102 -133 -45 -60 -110 -145 -144 -190 -35 -45 -77 -102 -95 -126 -18 -24 -56 -72 -84 -105 -28 -34 -79 -99 -114 -146 -34 -47 -79 -105 -99 -130 -20 -25 -45 -58 -55 -73 -9 -15 -39 -53 -67 -83 -27 -30 -49 -58 -49 -62 0 -5 -28 -43 -62 -85 -35 -42 -79 -98 -98 -124 -19 -26 -62 -82 -96 -123 -33 -41 -69 -88 -79 -105 -11 -16 -42 -58 -70 -92 -90 -113 -325 -414 -408 -525 -15 -21 -41 -52 -57 -70 -17 -18 -30 -36 -30 -40 0 -4 -28 -42 -63 -85 -35 -43 -74 -94 -87 -113 -13 -19 -45 -60 -70 -90 -26 -30 -80 -99 -121 -154 -41 -54 -101 -134 -134 -177 -33 -43 -85 -111 -116 -151 -30 -40 -73 -94 -95 -120 -21 -25 -59 -75 -84 -110 -25 -34 -68 -90 -96 -123 -28 -33 -56 -70 -62 -81 -6 -12 -37 -53 -69 -93 -75 -92 -128 -160 -178 -226 -22 -29 -74 -96 -115 -149 -41 -53 -88 -114 -105 -136 -16 -21 -64 -83 -105 -136 -41 -53 -109 -141 -150 -195 -41 -53 -110 -143 -153 -199 -90 -117 -111 -159 -102 -206 6 -32 81 -164 250 -439 40 -66 95 -156 121 -200 26 -44 63 -105 83 -135 20 -30 61 -98 91 -150 70 -119 86 -127 270 -130 69 -2 134 -2 146 -1 55 3 104 104 101 205 l-2 50 55 -3 c30 -1 73 -4 95 -6 57 -6 103 11 120 46 15 29 36 165 32 204 -2 22 -6 22 117 12 122 -10 162 25 172 151 10 123 2 115 103 107 165 -12 202 28 205 218 l0 38 101 -3 c84 -2 105 0 129 15 37 25 55 72 63 165 3 42 7 79 10 82 5 6 77 0 135 -10 63 -12 102 2 130 48 12 20 24 57 25 82 10 133 12 145 25 142 7 -2 46 -6 86 -8 84 -6 134 7 155 39 17 26 37 114 37 162 0 60 1 60 104 57 79 -3 99 -1 134 17 45 23 63 61 60 121 -1 19 -1 55 0 79 l2 44 95 -5 c76 -4 102 -2 133 12 48 21 51 30 66 150 l11 95 112 0 c103 0 113 2 136 23 27 25 48 89 45 137 -1 17 -1 47 0 67 l2 38 103 -6 c118 -6 143 2 170 57 10 20 20 69 22 109 3 40 8 76 11 82 4 6 39 7 93 3 151 -12 182 18 196 188 l7 79 88 -7 c105 -8 154 4 174 43 18 36 40 148 32 161 -4 5 -4 22 0 36 l6 26 87 -6 c98 -8 148 6 176 48 12 19 35 147 35 203 0 8 28 10 93 6 69 -3 101 -1 129 11 33 14 39 22 57 85 12 38 21 90 21 116 l0 46 89 -6 c159 -11 185 11 203 173 l11 95 92 -7 c134 -10 180 15 189 105 2 19 7 63 11 98 l8 62 66 -5 c36 -3 79 -8 94 -10 16 -3 43 2 62 9 28 12 36 23 49 67 9 29 16 65 16 79 0 15 3 47 6 71 l6 45 72 -7 c69 -7 140 2 176 21 22 12 40 61 40 110 0 21 3 58 6 83 l7 46 46 -5 c114 -11 157 -9 183 8 32 21 58 94 58 162 0 98 -2 96 114 89 l101 -5 2520 -2517 c2367 -2364 2524 -2519 2586 -2549 217 -104 461 -77 654 70 74 57 398 387 443 452 133 189 147 435 37 644 -32 61 -270 302 -2503 2535 l-2468 2468 12 92 c7 51 13 93 13 95 1 1 38 1 83 -1 108 -5 165 13 184 58 7 18 16 70 20 114 l7 82 107 -2 c127 -4 153 7 170 71 5 22 14 57 20 78 5 20 6 56 3 79 l-6 43 64 -5 c35 -3 79 -8 98 -10 50 -6 99 18 116 58 8 19 17 75 21 126 l7 91 51 -5 c28 -3 68 -8 89 -11 58 -7 122 25 135 67 11 33 20 110 21 175 l1 31 103 -1 c152 -2 168 14 182 178 l7 79 96 -6 c106 -6 152 5 172 44 14 25 33 136 32 189 l0 36 94 -9 c159 -13 185 10 199 177 l7 89 94 -7 c156 -11 188 18 198 179 3 42 7 79 9 82 3 2 42 -1 88 -8 72 -10 89 -9 122 4 50 22 76 78 77 167 0 93 2 94 99 86 69 -5 89 -4 126 13 66 29 77 53 80 179 1 75 8 123 20 156 37 96 138 -15 -1380 1503 -895 896 -1383 1377 -1403 1384 -55 19 -99 -11 -193 -136 -45 -60 -104 -137 -131 -170 -26 -33 -62 -79 -80 -103 -18 -23 -40 -50 -49 -60 -9 -9 -23 -30 -32 -47 -8 -16 -30 -46 -49 -65 -19 -20 -51 -59 -71 -88 -19 -29 -56 -78 -82 -110 -79 -99 -179 -226 -215 -276 -19 -26 -60 -78 -90 -114 -30 -37 -71 -90 -89 -117 -19 -28 -50 -68 -68 -90 -41 -49 -152 -193 -213 -276 -25 -33 -54 -71 -66 -83 -11 -11 -47 -57 -79 -101 -33 -44 -79 -105 -103 -135 -23 -30 -68 -86 -98 -125 -126 -161 -165 -211 -184 -233 -11 -13 -41 -55 -67 -94 -27 -39 -64 -88 -83 -109 -19 -21 -46 -54 -60 -74 -14 -20 -43 -59 -66 -88 -22 -29 -93 -119 -157 -202 -64 -82 -139 -179 -167 -215 -29 -36 -74 -95 -101 -132 -27 -37 -53 -69 -57 -72 -5 -3 -652 640 -1439 1427 l-1431 1432 -13 281 -12 282 24 24 c46 47 202 140 299 178 135 53 290 89 472 109 76 9 447 6 508 -3 19 -3 65 -8 102 -11 64 -6 92 -10 148 -20 14 -3 41 -7 60 -10 93 -14 361 -72 440 -95 19 -5 85 -24 145 -41 142 -40 375 -118 540 -182 242 -93 216 -87 302 -65 83 21 147 51 230 105 106 71 183 229 183 379 0 112 -68 326 -131 415 -18 25 -135 110 -214 154 -11 7 -69 42 -128 78 -60 37 -110 67 -112 67 -2 0 -27 14 -55 30 -319 188 -746 377 -1100 485 -235 73 -562 142 -755 160 -38 4 -83 9 -100 12 -57 8 -450 9 -545 2z m585 -103 c22 -3 63 -8 90 -10 28 -3 91 -13 140 -21 50 -9 115 -21 145 -26 31 -5 92 -18 135 -30 44 -11 87 -22 95 -24 94 -24 205 -57 221 -65 10 -6 19 -8 19 -5 0 3 9 1 21 -5 11 -6 28 -13 37 -15 25 -5 172 -60 226 -83 25 -12 46 -18 46 -15 0 3 6 1 13 -5 6 -5 64 -31 127 -58 172 -72 434 -207 685 -354 17 -9 48 -28 70 -41 22 -12 54 -33 71 -46 17 -13 35 -23 40 -24 5 0 43 -24 84 -52 83 -58 111 -98 156 -227 32 -93 43 -236 24 -307 -14 -49 -49 -111 -85 -149 -36 -39 -132 -93 -211 -120 l-78 -26 -130 52 c-72 29 -140 56 -151 60 -53 22 -400 138 -440 147 -5 1 -53 14 -105 28 -113 31 -368 91 -425 99 -22 3 -62 11 -90 16 -56 11 -251 35 -365 46 -115 10 -393 7 -509 -6 -196 -22 -403 -76 -526 -137 -107 -53 -225 -128 -278 -176 l-49 -43 11 -279 c6 -154 14 -303 17 -331 l5 -50 752 -752 c414 -413 1064 -1064 1446 -1446 l695 -695 -48 -63 c-131 -176 -154 -205 -177 -230 -15 -16 -39 -47 -55 -70 -16 -24 -50 -70 -76 -103 -99 -125 -175 -223 -237 -305 -36 -47 -83 -107 -106 -135 -23 -27 -51 -66 -63 -85 -11 -20 -33 -47 -47 -60 -15 -14 -43 -49 -62 -79 l-35 -54 -1503 1503 -1502 1502 -74 -7 c-248 -23 -619 -111 -809 -192 -19 -8 -44 -18 -55 -23 -46 -17 -235 -116 -295 -154 -105 -65 -210 -149 -287 -228 l-72 -75 30 -77 c60 -155 73 -226 73 -406 1 -126 -3 -184 -17 -245 -21 -92 -55 -191 -74 -220 -7 -11 -13 -27 -13 -37 0 -10 -4 -18 -10 -18 -5 0 -10 -5 -10 -12 0 -32 -107 -176 -197 -265 -144 -142 -276 -220 -473 -282 l-65 -20 -667 667 c-368 367 -668 674 -668 683 0 56 105 300 158 369 15 19 35 46 43 60 25 39 160 172 208 205 98 67 118 80 172 106 158 79 291 110 484 114 132 3 163 1 255 -21 l105 -24 63 67 c34 38 82 88 105 113 47 50 177 203 220 259 15 20 32 38 37 39 6 2 10 8 10 14 0 6 17 31 39 57 59 71 224 321 280 424 101 189 166 374 177 512 5 55 15 87 47 150 22 43 44 84 49 90 4 5 42 62 84 125 66 99 116 172 160 230 19 25 697 704 719 720 11 8 41 32 67 53 25 20 51 37 56 37 6 0 12 3 14 8 10 24 364 234 458 271 19 8 40 18 45 22 22 16 215 92 315 125 25 8 59 19 76 24 142 46 432 102 594 116 47 3 87 8 90 11 6 5 484 -4 535 -11z m5987 -3233 c747 -747 1358 -1364 1358 -1372 0 -8 -6 -19 -14 -25 -10 -7 -16 -40 -20 -101 -9 -147 -16 -186 -35 -181 -12 4 -166 16 -231 18 -19 1 -26 -4 -27 -19 -1 -10 -4 -61 -8 -113 -10 -155 -1 -144 -103 -136 -48 4 -111 9 -139 12 l-53 5 -2 -58 c-5 -183 -13 -219 -49 -217 -13 1 -73 5 -134 9 l-110 7 -1 -29 c-5 -140 -18 -243 -31 -248 -8 -3 -18 -3 -21 -1 -4 2 -60 7 -124 11 -95 6 -119 5 -123 -6 -5 -15 -14 -147 -15 -218 l0 -44 -97 7 c-54 4 -117 9 -141 12 -29 3 -44 1 -46 -8 -3 -7 -8 -71 -11 -141 l-7 -129 -72 6 c-39 4 -99 9 -133 12 -61 6 -61 5 -67 -23 -3 -15 -8 -75 -11 -133 -6 -115 -16 -133 -64 -124 -14 3 -70 8 -124 12 -93 7 -98 7 -102 -13 -3 -11 -4 -29 -4 -40 1 -11 -2 -64 -6 -119 l-8 -99 -106 7 c-58 4 -120 9 -138 11 -31 4 -32 3 -38 -48 -6 -51 -13 -146 -14 -200 l-1 -28 -77 6 c-43 3 -106 8 -140 11 l-62 6 -5 -34 c-3 -18 -8 -78 -11 -133 -4 -55 -8 -101 -9 -102 -6 -6 -58 -6 -162 1 l-112 8 -5 -39 c-3 -21 -6 -45 -6 -53 0 -8 -3 -52 -7 -98 l-7 -84 -121 7 c-67 4 -128 9 -138 11 -18 5 -23 -30 -33 -196 l-4 -75 -38 1 c-21 0 -84 3 -140 7 l-103 6 -2 -32 c-4 -64 -5 -83 -13 -164 l-8 -83 -35 4 c-19 3 -81 8 -137 12 l-102 7 -13 -138 -13 -137 -116 6 c-64 4 -125 8 -136 9 -16 2 -21 -6 -27 -43 -3 -25 -7 -70 -7 -100 -1 -30 -4 -72 -8 -93 l-6 -39 -101 7 c-56 3 -117 8 -137 11 l-36 5 -7 -88 c-4 -48 -10 -111 -13 -140 -5 -50 -6 -51 -37 -48 -17 2 -77 6 -133 10 -120 7 -110 19 -122 -145 -5 -76 -12 -115 -21 -120 -8 -5 -17 -7 -20 -5 -4 2 -175 16 -220 17 -25 1 -29 -10 -36 -109 -4 -60 -7 -121 -8 -137 l-1 -28 -95 6 c-52 4 -116 9 -141 12 l-46 6 -9 -128 c-5 -71 -8 -135 -7 -142 1 -10 -14 -12 -61 -8 -33 3 -97 8 -142 12 l-81 6 -6 -93 c-4 -50 -7 -112 -7 -137 l0 -45 -132 7 c-72 4 -136 8 -142 9 -7 1 -14 -42 -18 -113 -12 -178 1 -163 -131 -154 -62 3 -123 7 -137 8 l-25 1 -10 -135 -10 -135 -35 0 c-19 0 -81 4 -137 8 l-101 8 -6 -28 c-3 -15 -8 -76 -12 -135 -7 -112 -8 -115 -55 -110 -3 1 -54 4 -114 7 -125 8 -125 8 -125 -75 0 -30 -3 -86 -7 -124 l-6 -68 -104 6 c-57 4 -119 9 -137 11 -32 4 -34 3 -39 -33 -3 -20 -9 -83 -13 -140 l-7 -104 -86 6 c-47 4 -109 9 -137 12 l-51 6 -7 -32 c-3 -18 -6 -54 -6 -80 0 -26 -3 -75 -7 -109 l-6 -63 -31 6 c-17 3 -79 8 -137 12 l-107 6 -6 -48 c-3 -27 -8 -89 -12 -137 l-7 -89 -111 7 c-61 3 -123 8 -138 10 -26 3 -26 2 -32 -66 -3 -38 -9 -101 -12 -140 l-6 -71 -82 6 c-44 3 -106 9 -138 12 l-56 6 -6 -78 c-4 -44 -9 -107 -12 -142 l-6 -63 -46 5 c-26 3 -88 8 -138 12 l-91 7 -7 -89 c-11 -137 -18 -194 -25 -190 -3 2 -58 7 -121 11 -63 4 -117 9 -120 10 -20 12 -30 -21 -35 -110 -3 -55 -8 -115 -11 -134 l-5 -33 -92 6 c-51 4 -113 9 -138 12 l-46 4 -11 -136 c-6 -75 -12 -137 -14 -139 -2 -2 -64 1 -137 6 -73 6 -135 9 -136 7 -2 -2 -7 -59 -11 -128 -3 -69 -11 -131 -17 -138 -6 -7 -21 -11 -36 -8 -37 8 -106 14 -176 17 l-60 3 -7 -75 c-3 -40 -7 -103 -9 -137 l-2 -64 -106 7 c-58 4 -122 8 -141 8 l-35 2 -10 -135 -10 -135 -90 4 c-49 2 -99 5 -110 6 -11 1 -35 3 -52 4 -18 0 -33 6 -33 13 0 6 -6 19 -14 27 -8 9 -21 27 -28 41 -7 14 -58 98 -113 188 -55 89 -111 182 -124 205 -13 23 -27 44 -31 47 -4 3 -9 10 -11 15 -4 10 -46 80 -174 293 -41 68 -75 130 -75 137 0 10 231 320 298 400 10 11 44 56 77 100 33 44 62 82 65 85 5 4 32 39 107 137 12 15 35 46 52 68 17 22 34 45 38 50 5 6 33 42 64 80 30 39 73 93 95 122 21 28 49 64 61 80 12 15 35 46 52 68 60 79 106 138 116 149 6 6 37 47 70 91 70 93 76 102 91 118 6 7 40 51 76 97 136 179 203 265 213 276 5 6 26 32 45 58 19 26 47 62 61 79 14 18 93 120 174 227 82 107 153 197 157 198 4 2 8 10 8 18 0 8 3 14 8 14 4 0 27 27 52 61 24 33 53 70 63 82 10 12 50 63 87 113 38 50 76 96 84 104 9 7 16 19 16 26 0 8 4 14 8 14 4 0 52 60 107 133 55 72 103 134 106 137 3 3 25 32 50 65 24 33 49 65 54 71 6 6 26 32 45 58 19 26 55 73 80 104 52 66 89 113 145 187 46 60 139 180 205 264 25 32 72 92 105 135 33 43 80 105 105 136 124 160 166 214 175 229 6 9 13 18 16 21 4 3 25 30 47 60 23 30 45 60 50 65 27 32 189 240 197 254 6 9 12 18 15 21 7 6 115 144 160 204 34 45 98 128 152 197 14 19 40 52 57 74 17 22 34 45 39 50 17 21 127 165 214 280 50 66 110 143 132 170 23 28 51 64 64 80 12 17 48 63 80 103 31 41 71 94 89 118 17 24 51 68 75 97 47 56 72 88 160 206 56 76 131 171 221 282 26 32 47 61 47 65 0 6 24 36 79 99 9 11 44 56 76 100 32 44 81 105 107 136 26 31 48 60 48 63 0 4 23 35 50 69 28 34 54 67 58 72 67 87 140 182 214 280 50 66 110 143 132 170 23 28 51 64 64 80 12 17 48 63 80 104 31 40 77 100 102 132 25 32 74 95 109 140 35 45 98 128 141 183 42 56 98 128 123 161 26 33 80 103 119 155 40 52 78 100 84 105 6 6 43 53 81 105 39 52 85 114 104 137 19 22 59 74 89 113 52 68 140 183 158 205 4 6 52 69 107 140 55 72 117 153 140 181 83 105 146 186 225 290 24 32 64 82 87 110 24 28 43 54 43 58 0 4 24 35 53 70 28 35 79 99 112 142 119 154 178 230 233 304 73 97 84 110 97 110 5 0 621 -611 1367 -1357z m-1722 -4355 l75 -1 2463 -2461 c2574 -2572 2493 -2489 2532 -2609 49 -154 19 -333 -79 -457 -45 -57 -371 -383 -432 -432 -89 -72 -232 -114 -346 -103 -37 3 -70 8 -75 11 -4 3 -18 7 -30 9 -12 3 -49 18 -82 35 -54 26 -343 312 -2567 2537 l-2507 2508 7 100 c6 92 8 100 26 97 63 -8 175 -3 201 9 45 22 74 89 74 174 l0 70 93 -3 c121 -5 160 10 187 70 13 27 20 65 20 105 0 95 -1 94 94 87 152 -12 197 23 203 160 6 105 7 109 40 102 16 -3 62 -7 103 -8z"/>
</g>

</svg>
